<svg width="100" height="60" viewBox="0 0 100 60" fill="none" xmlns="http://www.w3.org/2000/svg">
<g clip-path="url(#clip0_1409_3149)">
<path d="M79.7046 5.99721C78.5906 7.82383 77.9081 9.88041 77.7092 12.0104C77.6872 12.2629 77.7664 12.5137 77.9294 12.7077C78.0924 12.9018 78.3259 13.0232 78.5784 13.0452C78.831 13.0671 79.082 12.988 79.2761 12.825C79.4703 12.6621 79.5917 12.4287 79.6137 12.1762C79.7828 10.7309 80.1761 9.32065 80.7796 7.99632C81.2933 6.80169 82.125 5.77077 83.1842 5.01581C82.9963 4.99398 82.8073 4.9826 82.6182 4.98174C81.5569 4.96184 80.5235 5.32203 79.7046 5.99721Z" fill="url(#paint0_linear_1409_3149)"/>
<path d="M90.8863 4.18912C90.3018 3.53527 89.5791 3.01969 88.7705 2.67981C87.9618 2.33992 87.0877 2.18427 86.2114 2.22412H86.1772C86.8424 2.58381 87.4375 3.06012 87.9341 3.63031C88.2587 4.00579 88.5435 4.41384 88.7841 4.84794C89.0262 5.0174 89.2468 5.21574 89.4409 5.43857C90.6503 7.38483 91.1332 9.69548 90.8045 11.9629C90.7872 12.0872 90.7946 12.2137 90.8262 12.3351C90.8579 12.4565 90.9132 12.5705 90.989 12.6705C91.0648 12.7705 91.1596 12.8546 91.2679 12.9179C91.3763 12.9813 91.4961 13.0227 91.6205 13.0397C91.6644 13.0428 91.7084 13.0428 91.7522 13.0397C91.9828 13.0392 92.2054 12.9554 92.3791 12.8039C92.5528 12.6524 92.666 12.4433 92.6977 12.2151C93.1084 9.40788 92.4629 6.54821 90.8863 4.18912Z" fill="url(#paint1_linear_1409_3149)"/>
<path d="M74.9863 13.044C75.2379 13.0643 75.4872 12.9849 75.6807 12.823C75.8741 12.661 75.9962 12.4296 76.0204 12.1785L74.1182 12.0127C74.0968 12.2645 74.1761 12.5145 74.3389 12.7078C74.5016 12.9012 74.7345 13.0221 74.9863 13.044Z" fill="url(#paint2_linear_1409_3149)"/>
<path d="M87.2183 11.9651C87.184 12.2157 87.2507 12.4697 87.4037 12.6712C87.5567 12.8727 87.7835 13.0052 88.0342 13.0396C88.0781 13.0427 88.1221 13.0427 88.166 13.0396C88.3965 13.039 88.6191 12.9553 88.7929 12.8038C88.9666 12.6523 89.0797 12.4432 89.1115 12.215L88.1638 12.0832L87.2183 11.9651Z" fill="url(#paint3_linear_1409_3149)"/>
<path d="M77.1864 8.00097C77.5193 7.15245 78.0343 6.38723 78.6952 5.75923C79.3561 5.13123 80.1467 4.65573 81.0114 4.36624C81.94 3.42624 83.1115 2.76247 84.3954 2.44892C83.814 2.30545 83.2171 2.23373 82.6182 2.23538C76.5614 2.23538 74.4091 8.63704 74.1182 12.0242L76.0204 12.19C76.1887 10.7415 76.582 9.32817 77.1864 8.00097Z" fill="white"/>
<path d="M77.1863 8.00099C77.5192 7.15247 78.0343 6.38723 78.6952 5.75923C79.356 5.13123 80.1467 4.65574 81.0113 4.36625C81.94 3.42624 83.1115 2.76249 84.3954 2.44894C83.8139 2.30547 83.2171 2.23373 82.6181 2.23538C76.5613 2.23538 74.4091 8.63706 74.1182 12.0242L76.0204 12.19C76.1886 10.7415 76.582 9.3282 77.1863 8.00099Z" fill="url(#paint4_linear_1409_3149)"/>
<path d="M87.2158 11.9629L88.1636 12.0924L87.2158 11.9629Z" fill="white"/>
<path d="M87.2158 11.9629L88.1635 12.0924L87.2158 11.9629Z" fill="url(#paint5_linear_1409_3149)"/>
<path d="M87.3364 4.2459C86.9624 4.17008 86.5816 4.13278 86.2 4.13458C85.582 4.1323 84.9678 4.23129 84.3818 4.42763C84.948 4.63669 85.4522 4.98518 85.8477 5.44081C87.0577 7.38685 87.5407 9.69769 87.2114 11.9652L88.1591 12.0969L89.1068 12.2287C89.5114 9.44094 88.8817 6.60158 87.3364 4.2459Z" fill="white"/>
<path d="M87.3364 4.24592C86.9624 4.17011 86.5816 4.13278 86.2 4.13458C85.582 4.1323 84.9678 4.23132 84.3818 4.42766C84.948 4.63672 85.4522 4.9852 85.8477 5.44084C87.0577 7.38688 87.5407 9.6977 87.2114 11.9652L88.1591 12.0969L89.1069 12.2287C89.5114 9.44094 88.8816 6.60161 87.3364 4.24592Z" fill="url(#paint6_linear_1409_3149)"/>
<path d="M82.6181 4.13446C83.2189 4.12505 83.8164 4.22433 84.3817 4.42751C84.9677 4.23117 85.5819 4.13218 86.1999 4.13446C86.5815 4.13264 86.9623 4.16994 87.3363 4.24578L87.2931 4.18898C86.5337 3.31609 85.5194 2.70347 84.3931 2.4375C83.1092 2.75105 81.9377 3.41482 81.009 4.35482C81.5323 4.20564 82.074 4.13145 82.6181 4.13446Z" fill="white"/>
<path d="M82.6181 4.13448C83.2189 4.12507 83.8164 4.22434 84.3818 4.42753C84.9677 4.23119 85.5819 4.1322 86.1999 4.13448C86.5815 4.13267 86.9623 4.16996 87.3363 4.24579L87.2931 4.18901C86.5337 3.31612 85.5194 2.70347 84.3931 2.4375C83.1092 2.75105 81.9377 3.41484 81.009 4.35484C81.5323 4.20566 82.074 4.13147 82.6181 4.13448Z" fill="url(#paint7_linear_1409_3149)"/>
<path d="M94.3407 46.3131C94.2014 46.3132 94.0636 46.2852 93.9354 46.2307C93.8072 46.1762 93.6913 46.0964 93.5947 45.9961C93.4981 45.8957 93.4228 45.7769 93.3733 45.6467C93.3238 45.5166 93.3012 45.3778 93.3067 45.2386L94.5362 12.7873C94.543 12.6005 94.6004 12.4191 94.7022 12.2623C94.804 12.1056 94.9466 11.9793 95.1145 11.897C95.2824 11.8148 95.4694 11.7795 95.6557 11.7951C95.8421 11.8107 96.0207 11.8764 96.1726 11.9854L98.4726 13.6256C98.5084 13.6515 98.5425 13.6796 98.5749 13.7096C99.0474 14.1474 99.4193 14.6824 99.6649 15.2777C99.9105 15.8731 100.024 16.5146 99.9976 17.1581L99.0544 40.468C99.0086 41.5775 98.5742 42.6357 97.8272 43.4576C97.8072 43.4799 97.7859 43.5012 97.7635 43.5212L95.0362 46.0383C94.8468 46.2134 94.5987 46.3114 94.3407 46.3131ZM96.5317 14.7841L95.4681 42.8261L96.3225 42.0355C96.7266 41.5773 96.9609 40.9942 96.9862 40.384L97.9294 17.074C97.9434 16.7395 97.8866 16.4057 97.7628 16.0945C97.6391 15.7833 97.4511 15.5017 97.2112 15.268L96.5317 14.7841Z" fill="url(#paint8_linear_1409_3149)"/>
<path d="M76.2796 16.438C76.2796 16.7588 76.1521 17.0665 75.9251 17.2934C75.6982 17.5203 75.3903 17.6477 75.0694 17.6477C74.7484 17.6477 74.4406 17.5203 74.2136 17.2934C73.9866 17.0665 73.8591 16.7588 73.8591 16.438C73.8591 15.7701 75.0682 14.6547 75.0682 14.6547C75.0682 14.5525 76.2796 15.7701 76.2796 16.438ZM89.2728 16.438C89.2798 16.6013 89.2538 16.7643 89.1962 16.9172C89.1385 17.0702 89.0505 17.2099 88.9374 17.3279C88.8244 17.4459 88.6886 17.5399 88.5382 17.604C88.3878 17.6682 88.226 17.7013 88.0625 17.7013C87.899 17.7013 87.7372 17.6682 87.5869 17.604C87.4365 17.5399 87.3007 17.4459 87.1876 17.3279C87.0745 17.2099 86.9865 17.0702 86.9289 16.9172C86.8713 16.7643 86.8452 16.6013 86.8523 16.438C86.8523 15.7701 88.0614 14.6547 88.0614 14.6547C88.0728 14.5525 89.2728 15.7701 89.2728 16.438Z" fill="url(#paint9_linear_1409_3149)"/>
<path d="M95.9363 11.9515C95.7344 11.7404 95.4917 11.5725 95.2229 11.4581C94.9541 11.3436 94.6648 11.2851 94.3726 11.2859H68.8522C68.5585 11.2859 68.2678 11.3454 67.9977 11.4609C67.7276 11.5764 67.4837 11.7454 67.2809 11.9577C67.078 12.1701 66.9203 12.4213 66.8173 12.6963C66.7144 12.9713 66.6682 13.2643 66.6817 13.5576L67.0749 21.8448H69.1454L68.7454 13.4599C68.7448 13.4461 68.7472 13.4322 68.7523 13.4193C68.7574 13.4064 68.765 13.3947 68.7749 13.3849C68.7844 13.3746 68.796 13.3663 68.809 13.3609C68.8219 13.3554 68.8359 13.3527 68.8499 13.3531H94.3704C94.3841 13.3534 94.3976 13.3564 94.4102 13.362C94.4228 13.3675 94.4342 13.3754 94.4437 13.3854C94.4531 13.3953 94.4606 13.407 94.4656 13.4197C94.4705 13.4325 94.4729 13.4462 94.4726 13.4599L93.3363 44.6323C93.3357 44.659 93.3247 44.6844 93.3056 44.7031C93.2864 44.7218 93.2608 44.7322 93.234 44.7322H68.1636C68.1893 45.2901 68.4293 45.8165 68.8336 46.202C69.2379 46.5875 69.7753 46.8023 70.334 46.8017H93.225C93.7878 46.8032 94.3291 46.5857 94.7342 46.1951C95.1393 45.8046 95.3765 45.2718 95.3954 44.7095L96.5317 13.5394C96.5452 13.2482 96.4993 12.9573 96.397 12.6844C96.2946 12.4114 96.1379 12.1621 95.9363 11.9515Z" fill="url(#paint10_linear_1409_3149)"/>
<path fill-rule="evenodd" clip-rule="evenodd" d="M7.45691 0H2.39327V4.1913H0.00463867V8.83466H2.39327V14.2709C2.4088 15.2474 2.62504 16.2103 3.02854 17.0997C3.43205 17.9892 4.01422 18.7862 4.73888 19.4413C5.46354 20.0964 6.31522 20.5956 7.24102 20.9078C8.16681 21.2201 9.14695 21.3387 10.1205 21.2563H13.1069V16.8083H10.1046C9.40362 16.8083 8.73132 16.53 8.23563 16.0345C7.73993 15.5391 7.46146 14.8671 7.46146 14.1664V8.83466H10.7842C11.4114 8.80821 12.0039 8.53965 12.4371 8.08547C12.8703 7.63129 13.1104 7.02689 13.1069 6.39939V4.20493H7.46146L7.45691 0ZM36.5478 14.3663C36.5478 14.7135 36.4794 15.0574 36.3464 15.3782C36.2135 15.699 36.0186 15.9905 35.773 16.236C35.5273 16.4816 35.2357 16.6764 34.9147 16.8092C34.5938 16.9421 34.2498 17.0105 33.9024 17.0105C33.555 17.0105 33.211 16.9421 32.89 16.8092C32.569 16.6764 32.2774 16.4816 32.0317 16.236C31.7861 15.9905 31.5912 15.699 31.4583 15.3782C31.3253 15.0574 31.2569 14.7135 31.2569 14.3663V6.64247C31.2572 6.321 31.194 6.00264 31.0709 5.70565C30.9479 5.40865 30.7673 5.13887 30.5397 4.91177C30.3121 4.68467 30.0419 4.50473 29.7445 4.38226C29.4471 4.25979 29.1285 4.19721 28.8069 4.19811H26.1683V13.712C26.1683 15.7605 26.9824 17.7251 28.4315 19.1736C29.8807 20.6221 31.8461 21.4358 33.8955 21.4358C35.9449 21.4358 37.9104 20.6221 39.3595 19.1736C40.8087 17.7251 41.6228 15.7605 41.6228 13.712V4.19811H36.5501V14.3731L36.5478 14.3663ZM59.0978 13.2372C59.0614 7.95324 56.191 3.79829 50.8501 3.79829C49.7219 3.81348 48.6083 4.05547 47.5756 4.50983C46.5429 4.96419 45.6122 5.62164 44.839 6.44302C44.0658 7.2644 43.4659 8.23291 43.075 9.29087C42.6841 10.3488 42.5103 11.4746 42.5637 12.6011C42.4547 13.7457 42.5908 14.9004 42.963 15.9883C43.3352 17.0763 43.935 18.0725 44.7223 18.9106C45.5097 19.7488 46.4667 20.4098 47.5295 20.8495C48.5924 21.2892 49.7367 21.4976 50.8864 21.4608C52.4187 21.458 53.9217 21.0417 55.237 20.2561C56.5522 19.4704 57.6309 18.3444 58.3592 16.9969L53.7183 15.7838C53.3936 16.2388 52.9625 16.6075 52.4626 16.8578C51.9627 17.108 51.4091 17.2322 50.8501 17.2195C50.0343 17.2583 49.2348 16.9821 48.6171 16.448C47.9995 15.9139 47.6109 15.1629 47.5319 14.3504H59.0978C59.1092 14.1027 59.0978 13.503 59.0978 13.2395V13.2372ZM47.5319 10.8724C47.6534 10.078 48.0556 9.35335 48.6655 8.82979C49.2755 8.30624 50.0529 8.01838 50.8569 8.01838C51.6609 8.01838 52.4383 8.30624 53.0483 8.82979C53.6582 9.35335 54.0604 10.078 54.1819 10.8724H47.5319ZM22.0251 4.19811H21.3433C20.4188 4.19811 19.5034 4.38038 18.6495 4.73448C17.7956 5.08858 17.02 5.60756 16.367 6.26171C15.714 6.91585 15.1966 7.69232 14.8442 8.54663C14.4919 9.40095 14.3116 10.3163 14.3137 11.2404V21.2654H19.3774V11.4971C19.3765 11.1489 19.4446 10.804 19.5778 10.4823C19.711 10.1607 19.9067 9.86854 20.1535 9.62288C20.4004 9.37721 20.6934 9.18288 21.0159 9.0511C21.3383 8.91932 21.6836 8.8527 22.0319 8.85511H24.9865V4.21628H22.0319L22.0251 4.19811Z" fill="#E0262B"/>
<path d="M5.20902 40.8339C3.59182 40.827 2.02799 40.2548 0.788568 39.2164C0.630766 39.0807 0.502391 38.9142 0.411327 38.727C0.320263 38.5399 0.268434 38.3361 0.259023 38.1283C0.248187 37.9959 0.265259 37.8627 0.309137 37.7373C0.353016 37.6119 0.422723 37.4971 0.513755 37.4004C0.604787 37.3036 0.715119 37.227 0.83762 37.1755C0.960122 37.124 1.09207 37.0988 1.22493 37.1015C1.48991 37.1292 1.7399 37.2378 1.94084 37.4127C2.84581 38.2136 4.00108 38.6753 5.20902 38.7189C6.92039 38.7189 7.8522 37.8784 7.8522 36.7584C7.8522 35.3954 6.42266 34.8616 4.77266 34.2596C1.44539 33.0783 0.386296 31.897 0.386296 29.8138C0.386296 27.1696 2.3772 25.802 5.20902 25.802C6.18669 25.8041 7.15247 26.0164 8.04084 26.4244C8.69539 26.7357 9.59539 27.3331 9.59539 28.0419C9.59539 28.6325 9.31584 29.1619 8.66357 29.1619C8.50732 29.1484 8.35712 29.0952 8.2272 29.0074C7.36147 28.3655 6.3184 28.0069 5.24084 27.9806C3.62266 27.9806 2.53402 28.5099 2.53402 29.7843C2.53402 30.8724 3.53175 31.5267 5.27266 32.1491C8.3522 33.2373 10.0022 34.0778 10.0022 36.6267C10.0069 37.2316 9.8813 37.8304 9.63387 38.3825C9.38644 38.9345 9.023 39.4269 8.56825 39.826C8.1135 40.2252 7.57811 40.5218 6.99847 40.6957C6.41882 40.8696 5.80851 40.9167 5.20902 40.8339ZM21.1045 40.7725C20.9476 40.7737 20.7924 40.7411 20.6493 40.6769C20.5062 40.6127 20.3787 40.5185 20.2754 40.4005C20.172 40.2826 20.0954 40.1438 20.0506 39.9935C20.0058 39.8433 19.9939 39.6851 20.0158 39.5299V34.2414H13.9477V39.5299C13.9477 40.3386 13.5136 40.7725 12.8908 40.7725C12.7341 40.7734 12.5791 40.7405 12.4362 40.6762C12.2933 40.6119 12.1659 40.5176 12.0626 40.3997C11.9594 40.2819 11.8827 40.1432 11.8378 39.9931C11.7928 39.8431 11.7807 39.6851 11.8022 39.5299V27.1514C11.8022 26.2427 12.2681 25.9088 12.8908 25.9088C13.5136 25.9088 13.9477 26.3427 13.9477 27.1514V32.1287H20.0158V27.1514C20.0158 26.2427 20.4704 25.9088 21.1045 25.9088C21.7386 25.9088 22.1613 26.3427 22.1613 27.1514V39.5299C22.1613 40.3364 21.6977 40.7725 21.1045 40.7725ZM30.3158 40.8339C26.5499 40.8339 24.0613 37.4445 24.0613 33.3372C24.0613 29.23 26.5613 25.8111 30.3158 25.8111C34.0704 25.8111 36.6317 29.2323 36.6317 33.3372C36.6317 37.4422 34.1113 40.8339 30.3158 40.8339ZM30.3158 27.9283C27.6386 27.9283 26.1772 30.5408 26.1772 33.3395C26.1772 36.1383 27.6408 38.7507 30.3158 38.7507C32.9908 38.7507 34.5158 36.1405 34.5158 33.3395C34.5158 30.5385 33.0227 27.9283 30.3158 27.9283ZM44.1886 34.8002H40.6727V39.5299C40.6727 40.4931 40.2386 40.7725 39.6158 40.7725C38.9931 40.7725 38.5272 40.4931 38.5272 39.5299V27.3081C38.5084 27.1549 38.5226 26.9994 38.5689 26.8521C38.6152 26.7048 38.6925 26.5692 38.7956 26.4542C38.8988 26.3393 39.0253 26.2478 39.1668 26.1858C39.3083 26.1239 39.4614 26.0929 39.6158 26.0951H44.1908C45.3288 26.121 46.4114 26.5911 47.2071 27.4048C48.0027 28.2184 48.4482 29.311 48.4482 30.4488C48.4482 31.5865 48.0027 32.6791 47.2071 33.4928C46.4114 34.3064 45.3288 34.7765 44.1908 34.8025L44.1886 34.8002ZM44.5613 28.2123H40.6727V32.6807H44.5613C45.7749 32.6807 46.3658 31.6221 46.3658 30.4726C46.3658 29.3231 45.7749 28.2077 44.559 28.2077L44.5613 28.2123ZM55.6363 34.8002H52.1204V39.5299C52.1204 40.4931 51.6863 40.7725 51.0636 40.7725C50.4408 40.7725 49.9749 40.4931 49.9749 39.5299V27.3081C49.9561 27.1549 49.9703 26.9994 50.0166 26.8521C50.0629 26.7048 50.1402 26.5692 50.2434 26.4542C50.3465 26.3393 50.4731 26.2478 50.6145 26.1858C50.756 26.1239 50.9091 26.0929 51.0636 26.0951H55.6386C56.7765 26.121 57.8591 26.5911 58.6548 27.4048C59.4504 28.2184 59.8959 29.311 59.8959 30.4488C59.8959 31.5865 59.4504 32.6791 58.6548 33.4928C57.8591 34.3064 56.7765 34.7765 55.6386 34.8025L55.6363 34.8002ZM56.009 28.2123H52.1204V32.6807H56.009C57.2227 32.6807 57.8136 31.6221 57.8136 30.4726C57.8136 29.3231 57.2227 28.2077 56.0067 28.2077L56.009 28.2123ZM62.5977 40.7725C61.9772 40.7725 61.5408 40.3386 61.5408 39.5299V27.1514C61.5408 26.3427 61.9454 25.9088 62.5977 25.9088C63.2499 25.9088 63.6567 26.2495 63.6567 27.1514V39.5299C63.6613 40.3364 63.2249 40.7725 62.5977 40.7725ZM75.7022 40.7725C75.5364 40.7793 75.3717 40.7428 75.2243 40.6668C75.0769 40.5907 74.9518 40.4776 74.8613 40.3386L68.3272 30.3863V39.6231C68.3272 40.4022 67.9227 40.7748 67.3022 40.7748C67.1556 40.7778 67.01 40.749 66.8755 40.6904C66.7411 40.6318 66.6209 40.5447 66.5233 40.4353C66.4257 40.3259 66.353 40.1966 66.3101 40.0564C66.2672 39.9162 66.2552 39.7683 66.2749 39.6231V27.0901C66.2533 26.9405 66.2646 26.7881 66.3083 26.6434C66.3519 26.4988 66.4267 26.3655 66.5275 26.2529C66.6283 26.1402 66.7525 26.0511 66.8914 25.9916C67.0304 25.9322 67.1807 25.9039 67.3317 25.9088C67.5048 25.9031 67.6758 25.9469 67.8248 26.035C67.9737 26.1231 68.0944 26.2519 68.1727 26.4063L74.6727 36.2927V27.0855C74.6727 26.1768 75.109 25.9042 75.6977 25.9042C76.2863 25.9042 76.7249 26.1836 76.7249 27.0855V39.6185C76.7367 39.7621 76.7193 39.9065 76.6737 40.0432C76.6282 40.1798 76.5554 40.3058 76.4599 40.4136C76.3643 40.5214 76.248 40.6088 76.1177 40.6705C75.9875 40.7322 75.8462 40.7669 75.7022 40.7725ZM89.8227 38.5326C89.2243 39.2769 88.4613 39.8721 87.5936 40.2714C86.726 40.6708 85.7774 40.8633 84.8227 40.8339C81.0567 40.8339 78.5067 37.6535 78.5067 33.3372C78.5067 28.9211 81.184 25.8111 84.7931 25.8111C85.593 25.7869 86.3881 25.9418 87.1204 26.2645C87.8526 26.5872 88.5033 27.0695 89.0249 27.6762C89.2226 27.9111 89.3327 28.2074 89.3363 28.5144C89.3479 28.6525 89.3308 28.7915 89.2861 28.9227C89.2415 29.0539 89.1702 29.1745 89.0767 29.2768C88.9833 29.3792 88.8697 29.4612 88.743 29.5176C88.6164 29.5741 88.4795 29.6038 88.3408 29.6048C88.2138 29.6094 88.0873 29.5869 87.9697 29.5387C87.8522 29.4905 87.7462 29.4178 87.659 29.3254C86.91 28.5354 85.8832 28.0671 84.7954 28.0192C82.2749 28.0192 80.6886 30.4454 80.6886 33.3372C80.6886 36.2291 82.0908 38.7893 84.8272 38.7893C85.4084 38.8092 85.9875 38.7091 86.5283 38.4953C87.0691 38.2815 87.56 37.9586 87.9704 37.5467V35.1501H85.2931C85.0297 35.1256 84.785 35.0038 84.6068 34.8084C84.4286 34.613 84.3299 34.3581 84.3299 34.0937C84.3299 33.8293 84.4286 33.5745 84.6068 33.3791C84.785 33.1837 85.0297 33.0618 85.2931 33.0374H88.9795C89.6022 33.0374 90.0386 33.4917 90.0386 34.28V37.733C90.0513 38.0155 89.9759 38.2949 89.8227 38.5326Z" fill="#E40084"/>
</g>
<defs>
<linearGradient id="paint0_linear_1409_3149" x1="77.0591" y1="11.8467" x2="90.0126" y2="5.87037" gradientUnits="userSpaceOnUse">
<stop stop-color="#90C278"/>
<stop offset="0.021" stop-color="#81C08F"/>
<stop offset="0.052" stop-color="#70BFAC"/>
<stop offset="0.083" stop-color="#64BDC1"/>
<stop offset="0.113" stop-color="#5DBDCD"/>
<stop offset="0.143" stop-color="#5BBDD2"/>
<stop offset="0.181" stop-color="#60A3C8"/>
<stop offset="0.227" stop-color="#658BBE"/>
<stop offset="0.255" stop-color="#6783BB"/>
<stop offset="0.279" stop-color="#6C73B0"/>
<stop offset="0.33" stop-color="#75569D"/>
<stop offset="0.375" stop-color="#7B4591"/>
<stop offset="0.408" stop-color="#7E3F8D"/>
<stop offset="0.566" stop-color="#E12D85"/>
<stop offset="0.711" stop-color="#E23F5F"/>
<stop offset="0.741" stop-color="#E3445A"/>
<stop offset="0.779" stop-color="#E5544C"/>
<stop offset="0.821" stop-color="#EA6F36"/>
<stop offset="0.86" stop-color="#F08E1D"/>
<stop offset="1" stop-color="#F1C614"/>
</linearGradient>
<linearGradient id="paint1_linear_1409_3149" x1="80.9971" y1="15.7805" x2="93.9809" y2="10.9065" gradientUnits="userSpaceOnUse">
<stop stop-color="#90C278"/>
<stop offset="0.021" stop-color="#81C08F"/>
<stop offset="0.052" stop-color="#70BFAC"/>
<stop offset="0.083" stop-color="#64BDC1"/>
<stop offset="0.113" stop-color="#5DBDCD"/>
<stop offset="0.143" stop-color="#5BBDD2"/>
<stop offset="0.181" stop-color="#60A3C8"/>
<stop offset="0.227" stop-color="#658BBE"/>
<stop offset="0.255" stop-color="#6783BB"/>
<stop offset="0.279" stop-color="#6C73B0"/>
<stop offset="0.33" stop-color="#75569D"/>
<stop offset="0.375" stop-color="#7B4591"/>
<stop offset="0.408" stop-color="#7E3F8D"/>
<stop offset="0.566" stop-color="#E12D85"/>
<stop offset="0.711" stop-color="#E23F5F"/>
<stop offset="0.741" stop-color="#E3445A"/>
<stop offset="0.779" stop-color="#E5544C"/>
<stop offset="0.821" stop-color="#EA6F36"/>
<stop offset="0.86" stop-color="#F08E1D"/>
<stop offset="1" stop-color="#F1C614"/>
</linearGradient>
<linearGradient id="paint2_linear_1409_3149" x1="74.473" y1="12.8465" x2="78.245" y2="0.0456321" gradientUnits="userSpaceOnUse">
<stop stop-color="#90C278"/>
<stop offset="0.021" stop-color="#81C08F"/>
<stop offset="0.052" stop-color="#70BFAC"/>
<stop offset="0.083" stop-color="#64BDC1"/>
<stop offset="0.113" stop-color="#5DBDCD"/>
<stop offset="0.143" stop-color="#5BBDD2"/>
<stop offset="0.181" stop-color="#60A3C8"/>
<stop offset="0.227" stop-color="#658BBE"/>
<stop offset="0.255" stop-color="#6783BB"/>
<stop offset="0.279" stop-color="#6C73B0"/>
<stop offset="0.33" stop-color="#75569D"/>
<stop offset="0.375" stop-color="#7B4591"/>
<stop offset="0.408" stop-color="#7E3F8D"/>
<stop offset="0.566" stop-color="#E12D85"/>
<stop offset="0.711" stop-color="#E23F5F"/>
<stop offset="0.741" stop-color="#E3445A"/>
<stop offset="0.779" stop-color="#E5544C"/>
<stop offset="0.821" stop-color="#EA6F36"/>
<stop offset="0.86" stop-color="#F08E1D"/>
<stop offset="1" stop-color="#F1C614"/>
</linearGradient>
<linearGradient id="paint3_linear_1409_3149" x1="81.0127" y1="19.3318" x2="85.148" y2="6.52254" gradientUnits="userSpaceOnUse">
<stop stop-color="#90C278"/>
<stop offset="0.021" stop-color="#81C08F"/>
<stop offset="0.052" stop-color="#70BFAC"/>
<stop offset="0.083" stop-color="#64BDC1"/>
<stop offset="0.113" stop-color="#5DBDCD"/>
<stop offset="0.143" stop-color="#5BBDD2"/>
<stop offset="0.181" stop-color="#60A3C8"/>
<stop offset="0.227" stop-color="#658BBE"/>
<stop offset="0.255" stop-color="#6783BB"/>
<stop offset="0.279" stop-color="#6C73B0"/>
<stop offset="0.33" stop-color="#75569D"/>
<stop offset="0.375" stop-color="#7B4591"/>
<stop offset="0.408" stop-color="#7E3F8D"/>
<stop offset="0.566" stop-color="#E12D85"/>
<stop offset="0.711" stop-color="#E23F5F"/>
<stop offset="0.741" stop-color="#E3445A"/>
<stop offset="0.779" stop-color="#E5544C"/>
<stop offset="0.821" stop-color="#EA6F36"/>
<stop offset="0.86" stop-color="#F08E1D"/>
<stop offset="1" stop-color="#F1C614"/>
</linearGradient>
<linearGradient id="paint4_linear_1409_3149" x1="73.3063" y1="11.6923" x2="83.7029" y2="0.609822" gradientUnits="userSpaceOnUse">
<stop stop-color="#90C278"/>
<stop offset="0.021" stop-color="#81C08F"/>
<stop offset="0.052" stop-color="#70BFAC"/>
<stop offset="0.083" stop-color="#64BDC1"/>
<stop offset="0.113" stop-color="#5DBDCD"/>
<stop offset="0.143" stop-color="#5BBDD2"/>
<stop offset="0.181" stop-color="#60A3C8"/>
<stop offset="0.227" stop-color="#658BBE"/>
<stop offset="0.255" stop-color="#6783BB"/>
<stop offset="0.279" stop-color="#6C73B0"/>
<stop offset="0.33" stop-color="#75569D"/>
<stop offset="0.375" stop-color="#7B4591"/>
<stop offset="0.408" stop-color="#7E3F8D"/>
<stop offset="0.566" stop-color="#E12D85"/>
<stop offset="0.711" stop-color="#E23F5F"/>
<stop offset="0.741" stop-color="#E3445A"/>
<stop offset="0.779" stop-color="#E5544C"/>
<stop offset="0.821" stop-color="#EA6F36"/>
<stop offset="0.86" stop-color="#F08E1D"/>
<stop offset="1" stop-color="#F1C614"/>
</linearGradient>
<linearGradient id="paint5_linear_1409_3149" x1="80.6662" y1="18.9525" x2="80.8708" y2="8.14435" gradientUnits="userSpaceOnUse">
<stop stop-color="#90C278"/>
<stop offset="0.021" stop-color="#81C08F"/>
<stop offset="0.052" stop-color="#70BFAC"/>
<stop offset="0.083" stop-color="#64BDC1"/>
<stop offset="0.113" stop-color="#5DBDCD"/>
<stop offset="0.143" stop-color="#5BBDD2"/>
<stop offset="0.181" stop-color="#60A3C8"/>
<stop offset="0.227" stop-color="#658BBE"/>
<stop offset="0.255" stop-color="#6783BB"/>
<stop offset="0.279" stop-color="#6C73B0"/>
<stop offset="0.33" stop-color="#75569D"/>
<stop offset="0.375" stop-color="#7B4591"/>
<stop offset="0.408" stop-color="#7E3F8D"/>
<stop offset="0.566" stop-color="#E12D85"/>
<stop offset="0.711" stop-color="#E23F5F"/>
<stop offset="0.741" stop-color="#E3445A"/>
<stop offset="0.779" stop-color="#E5544C"/>
<stop offset="0.821" stop-color="#EA6F36"/>
<stop offset="0.86" stop-color="#F08E1D"/>
<stop offset="1" stop-color="#F1C614"/>
</linearGradient>
<linearGradient id="paint6_linear_1409_3149" x1="78.3213" y1="16.729" x2="91.3052" y2="12.0956" gradientUnits="userSpaceOnUse">
<stop stop-color="#90C278"/>
<stop offset="0.021" stop-color="#81C08F"/>
<stop offset="0.052" stop-color="#70BFAC"/>
<stop offset="0.083" stop-color="#64BDC1"/>
<stop offset="0.113" stop-color="#5DBDCD"/>
<stop offset="0.143" stop-color="#5BBDD2"/>
<stop offset="0.181" stop-color="#60A3C8"/>
<stop offset="0.227" stop-color="#658BBE"/>
<stop offset="0.255" stop-color="#6783BB"/>
<stop offset="0.279" stop-color="#6C73B0"/>
<stop offset="0.33" stop-color="#75569D"/>
<stop offset="0.375" stop-color="#7B4591"/>
<stop offset="0.408" stop-color="#7E3F8D"/>
<stop offset="0.566" stop-color="#E12D85"/>
<stop offset="0.711" stop-color="#E23F5F"/>
<stop offset="0.741" stop-color="#E3445A"/>
<stop offset="0.779" stop-color="#E5544C"/>
<stop offset="0.821" stop-color="#EA6F36"/>
<stop offset="0.86" stop-color="#F08E1D"/>
<stop offset="1" stop-color="#F1C614"/>
</linearGradient>
<linearGradient id="paint7_linear_1409_3149" x1="75.0424" y1="13.4284" x2="76.2004" y2="1.72646" gradientUnits="userSpaceOnUse">
<stop stop-color="#90C278"/>
<stop offset="0.021" stop-color="#81C08F"/>
<stop offset="0.052" stop-color="#70BFAC"/>
<stop offset="0.083" stop-color="#64BDC1"/>
<stop offset="0.113" stop-color="#5DBDCD"/>
<stop offset="0.143" stop-color="#5BBDD2"/>
<stop offset="0.181" stop-color="#60A3C8"/>
<stop offset="0.227" stop-color="#658BBE"/>
<stop offset="0.255" stop-color="#6783BB"/>
<stop offset="0.279" stop-color="#6C73B0"/>
<stop offset="0.33" stop-color="#75569D"/>
<stop offset="0.375" stop-color="#7B4591"/>
<stop offset="0.408" stop-color="#7E3F8D"/>
<stop offset="0.566" stop-color="#E12D85"/>
<stop offset="0.711" stop-color="#E23F5F"/>
<stop offset="0.741" stop-color="#E3445A"/>
<stop offset="0.779" stop-color="#E5544C"/>
<stop offset="0.821" stop-color="#EA6F36"/>
<stop offset="0.86" stop-color="#F08E1D"/>
<stop offset="1" stop-color="#F1C614"/>
</linearGradient>
<linearGradient id="paint8_linear_1409_3149" x1="85.8472" y1="38.2696" x2="105.168" y2="37.543" gradientUnits="userSpaceOnUse">
<stop stop-color="#90C278"/>
<stop offset="0.021" stop-color="#81C08F"/>
<stop offset="0.052" stop-color="#70BFAC"/>
<stop offset="0.083" stop-color="#64BDC1"/>
<stop offset="0.113" stop-color="#5DBDCD"/>
<stop offset="0.143" stop-color="#5BBDD2"/>
<stop offset="0.181" stop-color="#60A3C8"/>
<stop offset="0.227" stop-color="#658BBE"/>
<stop offset="0.255" stop-color="#6783BB"/>
<stop offset="0.279" stop-color="#6C73B0"/>
<stop offset="0.33" stop-color="#75569D"/>
<stop offset="0.375" stop-color="#7B4591"/>
<stop offset="0.408" stop-color="#7E3F8D"/>
<stop offset="0.566" stop-color="#E12D85"/>
<stop offset="0.711" stop-color="#E23F5F"/>
<stop offset="0.741" stop-color="#E3445A"/>
<stop offset="0.779" stop-color="#E5544C"/>
<stop offset="0.821" stop-color="#EA6F36"/>
<stop offset="0.86" stop-color="#F08E1D"/>
<stop offset="1" stop-color="#F1C614"/>
</linearGradient>
<linearGradient id="paint9_linear_1409_3149" x1="81.5665" y1="5.98543" x2="81.5665" y2="21.2514" gradientUnits="userSpaceOnUse">
<stop stop-color="#90C278"/>
<stop offset="0.021" stop-color="#81C08F"/>
<stop offset="0.052" stop-color="#70BFAC"/>
<stop offset="0.083" stop-color="#64BDC1"/>
<stop offset="0.113" stop-color="#5DBDCD"/>
<stop offset="0.143" stop-color="#5BBDD2"/>
<stop offset="0.181" stop-color="#60A3C8"/>
<stop offset="0.227" stop-color="#658BBE"/>
<stop offset="0.255" stop-color="#6783BB"/>
<stop offset="0.279" stop-color="#6C73B0"/>
<stop offset="0.33" stop-color="#75569D"/>
<stop offset="0.375" stop-color="#7B4591"/>
<stop offset="0.408" stop-color="#7E3F8D"/>
<stop offset="0.566" stop-color="#E12D85"/>
<stop offset="0.711" stop-color="#E23F5F"/>
<stop offset="0.741" stop-color="#E3445A"/>
<stop offset="0.779" stop-color="#E5544C"/>
<stop offset="0.821" stop-color="#EA6F36"/>
<stop offset="0.86" stop-color="#F08E1D"/>
<stop offset="1" stop-color="#F1C614"/>
</linearGradient>
<linearGradient id="paint10_linear_1409_3149" x1="66.351" y1="43.7118" x2="101.278" y2="19.0648" gradientUnits="userSpaceOnUse">
<stop stop-color="#90C278"/>
<stop offset="0.021" stop-color="#81C08F"/>
<stop offset="0.052" stop-color="#70BFAC"/>
<stop offset="0.083" stop-color="#64BDC1"/>
<stop offset="0.113" stop-color="#5DBDCD"/>
<stop offset="0.143" stop-color="#5BBDD2"/>
<stop offset="0.181" stop-color="#60A3C8"/>
<stop offset="0.227" stop-color="#658BBE"/>
<stop offset="0.255" stop-color="#6783BB"/>
<stop offset="0.279" stop-color="#6C73B0"/>
<stop offset="0.33" stop-color="#75569D"/>
<stop offset="0.375" stop-color="#7B4591"/>
<stop offset="0.408" stop-color="#7E3F8D"/>
<stop offset="0.566" stop-color="#E12D85"/>
<stop offset="0.711" stop-color="#E23F5F"/>
<stop offset="0.741" stop-color="#E3445A"/>
<stop offset="0.779" stop-color="#E5544C"/>
<stop offset="0.821" stop-color="#EA6F36"/>
<stop offset="0.86" stop-color="#F08E1D"/>
<stop offset="1" stop-color="#F1C614"/>
</linearGradient>
<clipPath id="clip0_1409_3149">
<rect width="100" height="59.0643" fill="white"/>
</clipPath>
</defs>
</svg>
